<?xml version="1.0" standalone="no"?><svg xmlns="http://www.w3.org/2000/svg" viewBox="0 0 1440 320"><path fill="#11d7ff" fill-opacity="1" d="M0,96L40,112C80,128,160,160,240,149.3C320,139,400,85,480,101.3C560,117,640,203,720,202.7C800,203,880,117,960,74.7C1040,32,1120,32,1200,58.7C1280,85,1360,139,1400,165.3L1440,192L1440,320L1400,320C1360,320,1280,320,1200,320C1120,320,1040,320,960,320C880,320,800,320,720,320C640,320,560,320,480,320C400,320,320,320,240,320C160,320,80,320,40,320L0,320Z"></path></svg>